<svg xmlns="http://www.w3.org/2000/svg" xmlns:xlink="http://www.w3.org/1999/xlink" width="56" height="56" viewBox="0 0 56 56"><defs><clipPath id="a"><rect width="56" height="56" transform="translate(0 -2)" fill="none"/></clipPath></defs><g transform="translate(0 2)"><g clip-path="url(#a)"><path d="M55.326,33.657c.012-1.091.112-2.18.1-3.271s-.316-2.1-.413-3.174a28.357,28.357,0,0,1,.355-3.146c.027-1.146-.034-2.292,0-3.44.112-3.707-.934-8.3-4.764-9.907a9.3,9.3,0,0,0-5.571-.254,12.23,12.23,0,0,1-3.533.464c-1.119-.078-2.138-.6-3.252-.669a22.512,22.512,0,0,0-2.839.343c-.9.056-1.793-.022-2.689.042-.93.065-3.33.606-4.045-.154-.993-1.057-2.583.537-1.59,1.591.965,1.025,2.618.987,3.916.931,1.6-.068,3.274-.036,4.861-.195a11.664,11.664,0,0,1,2.393-.307c1.1.124,2.12.6,3.245.668,2.053.132,3.931-.738,5.956-.768a4.835,4.835,0,0,1,4.587,2.681c1.11,1.9,1.126,3.837,1.059,5.972-.035,1.133.114,2.309,0,3.434a15.616,15.616,0,0,0-.34,2.714c.074,1.075.4,2.086.413,3.174s-.089,2.18-.1,3.271a1.126,1.126,0,0,0,2.25,0"/><path d="M20.993,11.192c-1.328-.969-3.394.008-4.747.458-2.131.709-4.274,1.033-5.32,3.269a9.072,9.072,0,0,0-.856,3,4.46,4.46,0,0,0,.224,1.638,8.721,8.721,0,0,1,.356,2.366c.073,2.867-.087,5.769-.125,8.639a10.974,10.974,0,0,0,.032,1.642c.084.615.354,1.151.472,1.755a17.811,17.811,0,0,1,.01,4.329c-.164,2.943-.117,5.927-.081,8.875.03,2.376,1.646,3.724,3.855,4.338,2.754.766,5.289.071,8.054-.036,1.557-.06,3.059.374,4.608.421a40.482,40.482,0,0,1,4.791.415A11.955,11.955,0,0,0,36,52.3a11.414,11.414,0,0,0,1.692-.562,7.979,7.979,0,0,1,2.468-.285,1.126,1.126,0,0,0,0-2.25,9.961,9.961,0,0,0-3.066.365,8.515,8.515,0,0,1-2.962.618,23.356,23.356,0,0,1-3.084-.345c-1.271-.167-2.526-.147-3.8-.209-1.169-.057-2.311-.362-3.481-.418a19.019,19.019,0,0,0-3.393.271,12.986,12.986,0,0,1-3.77.1c-1.025-.162-2.649-.436-3.219-1.422-.425-.737-.17-2.067-.169-2.882q0-2.04,0-4.079A60.112,60.112,0,0,0,13.3,34.07a23.137,23.137,0,0,1-.539-2.935q.012-1.809.015-3.619c.007-2.472.393-5.046-.023-7.5-.1-.561-.378-1.09-.428-1.654a5.053,5.053,0,0,1,.394-1.856A2.877,2.877,0,0,1,14.534,14.5c1.014-.4,2.113-.631,3.148-.977.484-.162,1.724-.713,2.175-.384,1.172.854,2.3-1.1,1.136-1.943"/><path d="M53.9,41.76c.123.029.1.013-.071-.047l-.269-.269c-.061-.171-.073-.2-.037-.077-.015-.16-.018-.194-.013-.1s0,.179,0,.268c0,.049-.008.1-.014.145.015-.115.016-.13,0-.046-.081.43-.2.851-.3,1.277-.234,1.025-.1,2.058-.419,3.067a4.359,4.359,0,0,1-2.171,2.31,6.722,6.722,0,0,1-3.429.916,1.126,1.126,0,0,0,0,2.25c3.144.029,6.9-1.811,7.811-5.019a9.821,9.821,0,0,0,.323-2.339c0-.138.017-.279.012-.417.012.337,0,.033.022-.08.053-.247.12-.49.18-.735.273-1.117.539-2.97-1.03-3.27a1.156,1.156,0,0,0-1.385.786A1.136,1.136,0,0,0,53.9,41.76"/><path d="M20.425,22.5c1.833,0,3.666-.012,5.5,0,1.445.009,3.1-.336,4.461.287a1.158,1.158,0,0,0,1.539-.4,1.134,1.134,0,0,0-.4-1.539c-1.707-.78-3.387-.6-5.206-.592-1.962.012-3.926,0-5.889,0a1.126,1.126,0,0,0,0,2.25"/><path d="M34.982,22.17a4.63,4.63,0,0,0,3.32,1.119,1.126,1.126,0,0,0,0-2.25h-.024l.971.558,0-.006q-.2.77-.4,1.539c-.043.03-.295.1-.046.022.111-.034.22-.074.331-.11.155-.049.313-.107.472-.141l-1.27-1.653,0,0L39,20.733l-.023.009a1.161,1.161,0,0,0-.785,1.384,1.133,1.133,0,0,0,1.384.786,2.507,2.507,0,0,1,1.662-.127,15.451,15.451,0,0,0,2.273.606,3.305,3.305,0,0,0,1.88-.447c.224-.116.438-.253.667-.358a1.34,1.34,0,0,1,.386-.127,1.162,1.162,0,0,0,1.384-.785,1.133,1.133,0,0,0-.785-1.384,3.434,3.434,0,0,0-2.182.384c-.447.225-.858.552-1.227.478-.795-.159-1.531-.52-2.336-.644a4.6,4.6,0,0,0-2.321.234q.3,1.086.6,2.17a1.341,1.341,0,0,0,.7-.528A1.138,1.138,0,0,0,39,20.731a4.065,4.065,0,0,0-1.294.456,1.154,1.154,0,0,0-.4,1.54l0,.005a1.122,1.122,0,0,0,.972.557H38.3v-2.25a2.435,2.435,0,0,1-.957-.141,5.319,5.319,0,0,1-.549-.173c.068.031-.153-.08-.177-.1-.2-.12.089.106-.046-.051a1.135,1.135,0,0,0-1.591,0,1.148,1.148,0,0,0,0,1.591"/><path d="M21.741,30.834a9.274,9.274,0,0,1,3.08.158,3.163,3.163,0,0,0,1.967.055,29.2,29.2,0,0,1,6.334-.64c1.983-.056,3.79.694,5.747.841,1.91.143,3.86-.415,5.746.059l-.786-.785.075.363c.292,1.418,2.461.818,2.17-.6L46,29.923a1.11,1.11,0,0,0-.786-.785c-1.909-.481-3.812-.1-5.745-.116-2.01-.014-3.891-.885-5.918-.874a44.824,44.824,0,0,0-6.308.466,9.6,9.6,0,0,1-1.432.361,8.414,8.414,0,0,1-1.062-.332,14.388,14.388,0,0,0-3.007-.059,1.126,1.126,0,0,0,0,2.25"/><path d="M20.286,38.689a15.452,15.452,0,0,1,2.828-.46c1.036-.219,2.037-.318,3.082-.467,1.106-.158,2.221-.6,3.305-.138a9.184,9.184,0,0,0,2.72,1.038,28.2,28.2,0,0,0,2.878.486,3.371,3.371,0,0,0,1.032-.207,6.789,6.789,0,0,1,1.718-.207c1.043-.067,1.976-.461,3.029-.427a4.917,4.917,0,0,0,1.486-.142c.288-.078.976-.46,1.217-.255.908.77,2.537-.235,1.767-1.363l-.264-.388c-.812-1.189-2.762-.065-1.943,1.136l.264.388,1.767-1.364a2.626,2.626,0,0,0-2.6-.586,5.466,5.466,0,0,1-1.7.324,6.864,6.864,0,0,0-1.6.1,12.669,12.669,0,0,1-1.808.335,7.512,7.512,0,0,0-1.625.178,2.048,2.048,0,0,1-1.353.1,10.035,10.035,0,0,0-1.755-.319c-1.122-.106-1.929-.829-2.988-1.134a6.88,6.88,0,0,0-3.235.113c-1.208.23-2.416.257-3.62.541a20.03,20.03,0,0,0-3.207.548c-1.32.546-.741,2.723.6,2.17"/><path d="M20.864,44.87c1.372,0,2.764.07,4.133-.032a12.2,12.2,0,0,1,1.468-.058c.1.005.385.054.132,0,.107.023.214.039.318.07l.075.023c.094.035.1.035.006,0s-.087-.036-.034-.009a.644.644,0,0,1,.063.036c.1.083-.119-.16-.057-.049a1.2,1.2,0,0,0,.119.128,1.129,1.129,0,0,0,1.591,0,1.157,1.157,0,0,0,0-1.591c-.8-.973-2.3-.9-3.428-.819-1.456.109-2.927.051-4.386.051a1.125,1.125,0,1,0,0,2.25"/><path d="M32.707,44.432c1.13-.009,2.191-.475,3.318-.434s2.222.41,3.358.432c1.294.025,2.6-.048,3.888.008.577.024,1.146.147,1.722.172.417.017.827-.13,1.183.107,1.208.806,2.336-1.142,1.135-1.943-.957-.638-2.208-.4-3.3-.52a35.222,35.222,0,0,0-4.1-.075c-1.243,0-2.411-.325-3.644-.416s-2.351.409-3.56.419a1.126,1.126,0,0,0,0,2.25"/><path d="M7.7,38.673c-1.641-.045-3.445-.259-4.313-1.851a7.111,7.111,0,0,1-.713-2.7,10.532,10.532,0,0,1,.431-2.8,26.674,26.674,0,0,0,.017-5.579c-.058-2-1.255-3.6-.681-5.608a12.613,12.613,0,0,0,.578-5.549,17.915,17.915,0,0,1-.357-2.861c.014-1.048.145-2.066.231-3.107a23.2,23.2,0,0,1-.13-2.567A6.254,6.254,0,0,1,3.9,3.729c.633-.72,1.424-.372,2.257-.64.159-.052,1.635-.736,1.731-.374L8.67,1.331l-.387.1a1.126,1.126,0,0,0,.6,2.169l.387-.1a1.141,1.141,0,0,0,.785-1.384C9.692.753,8.342.336,7.055.455c-.781.073-1.42.471-2.2.509A3.3,3.3,0,0,0,2.8,1.68a7.865,7.865,0,0,0-2.3,4.144A9.282,9.282,0,0,0,.679,8.187c.008,1.028-.221,2.063-.247,3.1C.381,13.317,1.1,15.266.865,17.3c-.24,2.109-1.353,3.8-.616,5.973a7.706,7.706,0,0,1,.628,2.474c.032,1.04.124,2.077.147,3.118.043,1.917-.773,3.7-.553,5.612a7.312,7.312,0,0,0,2.278,5.037A8,8,0,0,0,7.7,40.923a1.126,1.126,0,0,0,0-2.25"/><path d="M18.314,1.993c1.3,1.4,3.506.755,5.18.772a11.8,11.8,0,0,0,3.821-.242,12.253,12.253,0,0,1,3.867-.2,22.422,22.422,0,0,1,3.936.277,17.86,17.86,0,0,0,3.236.115c1.295,0,1.809.333,2.127,1.6a4.822,4.822,0,0,1,.028,3.33c-.585,1.311,1.353,2.457,1.942,1.136a7.524,7.524,0,0,0-.462-6.759C40.568-.233,37.693.792,35.535.4A23.737,23.737,0,0,0,31.182.075a13.874,13.874,0,0,0-4.134.162,16.412,16.412,0,0,1-4.315.286C22.014.558,20.449.989,19.905.4c-.986-1.065-2.574.529-1.591,1.591"/></g></g></svg>