<svg xmlns="http://www.w3.org/2000/svg" xmlns:xlink="http://www.w3.org/1999/xlink" width="24" height="24" viewBox="0 0 24 24"><defs><clipPath id="a"><rect width="24" height="24" transform="translate(-843 -76)" fill="#fff"/></clipPath></defs><g transform="translate(843 76)" clip-path="url(#a)"><path d="M22.878,6.28,19.416,22.607c-.261,1.152-.942,1.439-1.91.9l-5.275-3.887L9.685,22.064a1.325,1.325,0,0,1-1.06.517L9,17.209l9.777-8.835c.425-.379-.092-.589-.661-.21L6.034,15.775.83,14.146c-1.132-.353-1.152-1.132.236-1.675L21.419,4.631C22.361,4.277,23.186,4.841,22.878,6.28Z" transform="translate(-842.444 -78.028)" fill="#ffe087"/><path d="M21.945,4.028a1.424,1.424,0,0,1,1.134.521,2.092,2.092,0,0,1,.288,1.836L19.9,22.718c-.306,1.349-1.1,1.551-1.55,1.551a2.266,2.266,0,0,1-1.093-.329l-.027-.015-4.961-3.656-2.238,2.152a1.8,1.8,0,0,1-1.41.66H8.089l.431-6.109,7.93-7.166L6.1,16.321l-5.424-1.7c-1-.312-1.168-.868-1.179-1.171-.014-.408.214-.99,1.382-1.446L21.239,4.164A2.008,2.008,0,0,1,21.945,4.028ZM18.928,22.5,22.389,6.176a1.26,1.26,0,0,0-.088-1,.433.433,0,0,0-.356-.149,1.009,1.009,0,0,0-.351.071L1.245,12.938c-.526.206-.707.4-.74.476a.964.964,0,0,0,.474.255l4.983,1.56L17.849,7.744a1.561,1.561,0,0,1,.837-.28.714.714,0,0,1,.71.434.748.748,0,0,1-.282.849l-9.625,8.7-.312,4.417c.047-.043.1-.093.155-.151l.007-.007,2.849-2.74,5.588,4.118a1.292,1.292,0,0,0,.578.187C18.453,23.269,18.753,23.269,18.928,22.5Z" transform="translate(-842.444 -78.028)"/></g></svg>